<svg xmlns="http://www.w3.org/2000/svg" viewBox="0 0 1920.01 640.88"><title>KraeftensBekaempelse_Logo_RGB_Roed</title><path d="M652.89,225.15a134.77,134.77,0,0,0-190.59,0l-23.71,23.72-23.72-23.72a134.76,134.76,0,1,0,0,190.58L438.59,392l23.71,23.72A134.76,134.76,0,1,0,652.89,225.15ZM394.1,395a105.4,105.4,0,1,1,0-149.05l23.72,23.71-30,30L364.06,276a62.91,62.91,0,1,0,0,89l23.72-23.72,30,30ZM438.59,290.4l30,30-30,30-30-30Zm-71.58,30L343.3,344.16a33.53,33.53,0,1,1,0-47.44ZM632.12,395a105.5,105.5,0,0,1-149,0l-23.72-23.71,30-30,23.72,23.72a62.91,62.91,0,1,0,0-89l-23.72,23.71-30-30,23.72-23.71A105.39,105.39,0,1,1,632.12,395Zm-98.24-98.24a33.54,33.54,0,1,1,0,47.44l-23.72-23.72,23.72-23.72Z" style="fill:#f0001e"/><path d="M866.53,302.1H852c-2.58-22.4-12.87-41.78-30.88-50.26a50.48,50.48,0,0,1-21.19,5.91V302.1H786.3v-106h13.63V244c22.1-1.67,44.35-24.83,47.07-47.83h13.93c-2.42,17.55-12.57,34.81-26.49,46.77C852,254.72,862.89,273.94,866.53,302.1Z" style="fill:#f0001e"/><path d="M931.44,222.78V235.5c-11.36.75-21.5,6.2-27.55,14.68V302.1H891V236.56H877.4V224.15h26.49v10.59C909.34,226.87,918.87,222.78,931.44,222.78Z" style="fill:#f0001e"/><path d="M1073.7,267l-59,.31c1.51,15,13.62,23.91,26.79,23.91a26.33,26.33,0,0,0,21.64-11.05l9.09,9.69A40.6,40.6,0,0,1,1041,303.92c-12.4,0-23.76-5.15-31-14.39-8,10.14-20,14.23-31.34,14.23-22.55,0-39.35-16.49-39.35-40.71s16.8-40.57,39.05-40.57c8,0,17.11,2.73,23,8.63V224.3h12.86v7.26a36.58,36.58,0,0,1,24.53-9.08c21.19,0,35.11,16.05,35.11,40.87A31.9,31.9,0,0,1,1073.7,267Zm-70.08,10.6a45.39,45.39,0,0,1-2.27-14.68V246.4c-4.09-6.36-12.11-11.05-22.25-11.05-15.14,0-26.34,11.5-26.34,27.7S964,290.9,979.4,290.9A27.93,27.93,0,0,0,1003.62,277.58Zm56.31-22.4c-1.37-12.11-9.24-20.13-21.34-20.13-12.27,0-22.1,7.87-23.92,20.13Z" style="fill:#f0001e"/><path d="M1198.39,296c-5.3,5.15-13,7.27-20,7.27-14.08,0-24.83-8.63-24.83-24.22V236.56h-41.32V302.1H1099.4V236.56h-16.5V224.15h16.5v-7.88c0-14.67,9.84-23.91,23.61-23.91a32.63,32.63,0,0,1,18,5.45l-6,11.2a17.36,17.36,0,0,0-11.2-4.08c-6.36,0-11.51,3.93-11.51,11.34v7.88h41.32V203.41h12.87v20.74h26.79v12.41h-26.79v41.17c0,9.54,6.06,13.17,13,13.17a16.39,16.39,0,0,0,12.71-5.6Z" style="fill:#f0001e"/><path d="M1283.42,267.13h-62.66c1.21,15,14.23,24.07,27.55,24.07a29,29,0,0,0,23.91-12.11l9.08,9.69c-5.14,7.42-17.55,15.14-33,15.14-24.68,0-41.17-16.2-41.17-41,0-22.86,15.74-40.57,38.59-40.57,22.41,0,37.84,16.65,37.84,41.32C1283.57,264.26,1283.57,265.47,1283.42,267.13Zm-14.07-11.95c-1.37-12.42-11.51-20.44-23.62-20.44-12.86,0-22.85,8.18-25,20.44Z" style="fill:#f0001e"/><path d="M1369.38,256.24V302.1h-12.87V257.6c0-13.92-8.63-22.4-21.5-22.4-9.53,0-17.7,4.54-21.94,10V302.1H1300.2v-78h12.87v5.9a38.63,38.63,0,0,1,22.85-7.57C1355.75,222.48,1369.38,236.11,1369.38,256.24Z" style="fill:#f0001e"/><path d="M1430.35,280.61c-.15-8.48-5.9-10.45-19.37-13.78s-23.77-8.93-23.77-21.95c0-14.68,12.11-22.55,27-22.55,12.26,0,20.73,5.3,26.94,14.23l-10,8.32c-3.79-6.81-8.78-10.29-16.8-10.29-7,0-14.08,3.33-14.08,10.14,0,6.21,4.39,7.72,16,10.75,13.17,3.33,27,7.87,27,24.67,0,15.59-11.51,24.07-26.79,24.07-13.17,0-24.52-6.06-31-16.05l10-8.32a23.81,23.81,0,0,0,21,12.11C1424,292,1430.5,288.33,1430.35,280.61Z" style="fill:#f0001e"/><path d="M868.51,414.54c0,18.92-14.08,31.79-34.82,31.79H786.47v-106h40.71c16.81,0,29.52,11.81,29.52,28a29.12,29.12,0,0,1-6.66,18C861.55,391.23,868.51,401.37,868.51,414.54Zm-68.42-31.33h33.6a20.51,20.51,0,0,1,3,.15A19.36,19.36,0,0,0,843.08,369c0-8-5.15-15.59-17.86-15.59H800.09Zm54.64,31.33c0-11.51-8.32-18.31-22.55-18.31H800.09v37.08h32.09C846.41,433.31,854.73,426.35,854.73,414.54Z" style="fill:#f0001e"/><path d="M958.4,411.36H895.73c1.21,15,14.23,24.07,27.55,24.07a29.09,29.09,0,0,0,23.92-12.11l9.08,9.69c-5.15,7.41-17.56,15.13-33,15.13-24.67,0-41.17-16.19-41.17-41,0-22.85,15.74-40.56,38.6-40.56,22.4,0,37.84,16.65,37.84,41.32C958.55,408.48,958.55,409.7,958.4,411.36Zm-14.08-12C943,387,932.82,379,920.71,379c-12.87,0-22.86,8.17-25,20.43Z" style="fill:#f0001e"/><path d="M1043.43,446.33h-13.77c-2.73-18.17-11.65-32.85-26.94-37.39a56.51,56.51,0,0,1-14.69,2v35.42H975.17V338.86H988v59.48c20.59-.15,32.09-11.65,35.57-30h12.87c-2.27,14.68-8.78,26.33-19.07,33.75C1031.93,410.46,1040.41,426.35,1043.43,446.33Z" style="fill:#f0001e"/><path d="M1186.45,411.21l-59,.3c1.52,15,13.62,23.92,26.79,23.92a26.34,26.34,0,0,0,21.65-11.05l9.08,9.69a40.61,40.61,0,0,1-31.18,14.07c-12.41,0-23.76-5.14-31-14.38-8,10.14-20,14.23-31.33,14.23-22.55,0-39.36-16.49-39.36-40.71,0-24.07,16.81-40.57,39-40.57,8,0,17.11,2.73,23,8.63v-6.81H1127v7.26a36.53,36.53,0,0,1,24.52-9.08c21.19,0,35.12,16,35.12,40.87A29.92,29.92,0,0,1,1186.45,411.21Zm-70.08,10.6a45.4,45.4,0,0,1-2.27-14.69V390.63c-4.09-6.36-12.11-11.05-22.25-11.05-15.13,0-26.33,11.5-26.33,27.7s11.2,27.85,26.63,27.85A27.93,27.93,0,0,0,1116.37,421.81Zm56.31-22.41c-1.36-12.1-9.23-20.12-21.34-20.12s-22.1,7.86-23.92,20.12Z" style="fill:#f0001e"/><path d="M1318.86,399.1v47.23H1306V400.46c0-13.62-7-21-18-21-9.69,0-16.5,4.39-20.59,9.84a40.74,40.74,0,0,1,1.06,9.84v47.23h-12.86V400.46c0-13.62-7-21-18-21-9.68,0-17.25,4.39-21.49,10v56.91h-12.86V368.38h12.86v5.9a37.87,37.87,0,0,1,22.71-7.57c9.68,0,17.71,3.78,22.85,10.45,8-6.82,17.11-10.45,27.25-10.45C1306.9,366.71,1318.86,379.28,1318.86,399.1Z" style="fill:#f0001e"/><path d="M1414.18,407.28c0,24.22-16.8,40.71-39.2,40.71a38.61,38.61,0,0,1-22.86-7.11v34.21h-12.87V368.53h12.87v5.3a38.55,38.55,0,0,1,22.86-7.12C1397.38,366.71,1414.18,383.21,1414.18,407.28Zm-13.47,0c0-16.2-11.2-27.7-26.49-27.7-9.84,0-17.86,3.78-22.1,9.38v36.63c4.24,5.6,12.11,9.54,22.1,9.54C1389.51,435.13,1400.71,423.62,1400.71,407.28Z" style="fill:#f0001e"/><path d="M1502.56,411.36h-62.67c1.21,15,14.23,24.07,27.55,24.07a29.09,29.09,0,0,0,23.92-12.11l9.08,9.69c-5.15,7.41-17.56,15.13-33,15.13-24.67,0-41.17-16.19-41.17-41,0-22.85,15.74-40.56,38.6-40.56,22.4,0,37.84,16.65,37.84,41.32C1502.71,408.48,1502.71,409.7,1502.56,411.36Zm-14.08-12C1487.12,387,1477,379,1464.87,379c-12.87,0-22.86,8.17-25,20.43Z" style="fill:#f0001e"/><path d="M1559.29,443a24.22,24.22,0,0,1-15,4.69c-11.66,0-20.44-7-20.44-21V351.27h-13.62V338.86h26.49v86.43c0,7,3.63,10.29,8.63,10.29a12,12,0,0,0,8.32-3.33Z" style="fill:#f0001e"/><path d="M1613,424.83c-.15-8.47-5.9-10.44-19.37-13.77s-23.77-8.93-23.77-21.95c0-14.68,12.12-22.55,27-22.55,12.26,0,20.73,5.29,26.94,14.23l-10,8.32c-3.78-6.81-8.78-10.29-16.8-10.29-7,0-14.08,3.33-14.08,10.14,0,6.21,4.39,7.72,16,10.75,13.17,3.32,26.94,7.87,26.94,24.67,0,15.59-11.51,24.07-26.79,24.07-13.17,0-24.52-6.06-31-16.05l10-8.33a23.81,23.81,0,0,0,21,12.12C1606.66,436.19,1613.17,432.55,1613,424.83Z" style="fill:#f0001e"/><path d="M1715,411.36h-62.66c1.21,15,14.23,24.07,27.55,24.07a29.06,29.06,0,0,0,23.91-12.11l9.09,9.69c-5.15,7.41-17.56,15.13-33,15.13-24.67,0-41.17-16.19-41.17-41,0-22.85,15.74-40.56,38.6-40.56,22.4,0,37.84,16.65,37.84,41.32A34.5,34.5,0,0,1,1715,411.36Zm-14.07-12c-1.36-12.41-11.5-20.43-23.61-20.43-12.87,0-22.86,8.17-25,20.43Z" style="fill:#f0001e"/></svg>